<?xml version="1.0" encoding="UTF-8"?>
<svg id="Layer_1" xmlns="http://www.w3.org/2000/svg" version="1.1" viewBox="0 0 2918.2 800">
  <!-- Generator: Adobe Illustrator 29.5.0, SVG Export Plug-In . SVG Version: 2.1.0 Build 137)  -->
  <defs>
    <style>
      .st0 {
        font-family: MyriadPro-Regular, 'Myriad Pro';
        font-size: 521.7px;
      }
    </style>
  </defs>
  <g id="a9b55181-08cd-4e23-b315-7b35ac037aca">
    <path d="M522.9,440.2c-12.3,0-24.6-1.3-36.7-4,7,15.2,12.4,31,16,47.3h20.7c22.7,0,45.2-3.7,66.7-10.9l-20.7-40.2c-14.9,4.7-30.4,7.3-46,7.8Z"/>
    <path d="M408,397.1l-8-8.4c-35.1-34.3-53.1-82.6-48.9-131.6,2.3-32.4,14.2-63.3,34.2-88.9l-1.8,31.8c0,11.5,8.7,21.2,20.2,22.2h2c11.5,0,21.2-8.7,22.2-20.2l7.6-90.9c.5-6.5-1.8-12.9-6.4-17.6-4.9-4-11.3-5.7-17.6-4.7l-90.9,7.8c-12.3,1-21.4,11.8-20.3,24.1s11.8,21.4,24.1,20.3l28.7-2.4c-27,33.8-42.9,75.1-45.6,118.2-4.6,59.9,17,118.8,59.3,161.3l6.9,8.2c28.4,29.3,44.7,68.3,45.8,109.1,1.2,18.5-.8,37-5.8,54.9l40,20.2c8.6-25,12-51.6,10-78-1.4-50.5-21.2-98.7-55.8-135.6Z"/>
    <path d="M720,398l-26.9,2c72.4-93.7,55.1-228.4-38.6-300.8-37.7-29.1-84-44.9-131.6-44.7-22.7,0-45.2,3.6-66.7,10.9l20.2,40c90.6-25.7,184.8,27,210.4,117.5,4.3,15.2,6.5,30.9,6.4,46.7,0,38.1-12.9,75.1-36.7,104.9l2.2-34.2c.8-12.3-8.5-22.9-20.8-23.7-12.3-.8-22.9,8.5-23.7,20.8h0l-6.2,90.7c-.4,6.5,2.2,12.8,6.9,17.3,4,4.1,9.6,6.3,15.3,6.2h2.2l90.7-9.3c12.2-1.2,21.2-12,20-24.2,0,0,0-.1,0-.2-1.3-11.7-11.5-20.4-23.3-19.8Z"/>
    <path d="M90.4,454.2h1.8l90.9-7.8c12.3-1,21.4-11.8,20.3-24.1-1-12.3-11.8-21.4-24.1-20.3l-30.9,2.7c29.1-21.5,64.3-33.1,100.4-33.1,12.2,0,24.3,1.4,36.2,4-7-15.2-12.3-31-15.8-47.3h-20.4c-47.4,0-93.5,15.6-131.1,44.4l2.7-29.1c1-12.2-8.1-23-20.3-24,0,0,0,0-.1,0-12.2-1-22.9,8-24,20.2l-7.8,90.7c-1,12.2,8.1,22.9,20.4,23.9.6,0,1.2,0,1.8,0v-.2Z"/>
    <path d="M409.3,627.3l-90.9,6c-12.3.8-21.6,11.4-20.8,23.7.8,12.3,11.4,21.6,23.7,20.8l34.2-2.4c-73.8,59.3-181.6,47.5-240.9-26.2-24.4-30.4-37.7-68.2-37.8-107.1.2-15,2.3-30,6.4-44.4l-38.9-20.7c-6.9,21.2-10.4,43.3-10.4,65.6.8,119,97.9,214.9,216.9,214.2,47.5-.3,93.6-16.3,131.1-45.5l-2.7,26.2c-1.3,12.2,7.6,23.1,19.8,24.4,0,0,0,0,0,0h2.4c11.5,0,21.1-8.6,22.2-20l9.3-90.2c1.3-12.2-7.6-23.1-19.8-24.4-1.2-.1-2.5-.1-3.7,0l-.2.2Z"/>
  </g>
  <text class="st0" transform="translate(825.9 619.7)"><tspan x="0" y="0">FreeCICD</tspan></text>
</svg>